<svg width="585" height="675" xmlns="http://www.w3.org/2000/svg" xmlns:xlink="http://www.w3.org/1999/xlink" xml:space="preserve" overflow="hidden"><defs><clipPath id="clip0"><rect x="2695" y="805" width="585" height="675"/></clipPath></defs><g clip-path="url(#clip0)" transform="translate(-2695 -805)"><path d="M624 385.957 522.361 385.957 457.808 497.325 220.362 497.325 101.639 292.5 220.362 87.675 457.808 87.675 522.361 199.043 624 199.043 508.628 0 169.543 0 0 292.5 169.543 585 508.628 585Z" fill="#FAA224" fill-rule="evenodd" transform="matrix(-1.83697e-16 -1 -1 1.83697e-16 3280 1480)"/><path d="M191.091 286.838 216.345 243.297 203.455 221.074 203.484 221.023 195.44 207.153 195.458 207.122 171.485 165.788 171.54 165.693 151.07 130.401 151.117 130.32 138.228 108.097 138.258 108.046 116.09 69.8269 116.141 69.7392 100.981 43.6016 101.016 43.5413 75.7618 0 25.2538 0 0 43.5413 15.16 69.6789 15.125 69.7392 37.2925 107.959 37.2416 108.046 50.1312 130.27 50.1016 130.32 70.5707 165.612 70.5238 165.693 94.4975 207.027 94.4426 207.122 102.487 220.992 102.469 221.023 115.359 243.247 115.329 243.297 140.583 286.838Z" fill-rule="evenodd" transform="matrix(0.866025 -0.5 -0.5 -0.866025 2965.67 1149.35)"/></g></svg>