<svg width="888" height="889" xmlns="http://www.w3.org/2000/svg" xmlns:xlink="http://www.w3.org/1999/xlink" xml:space="preserve" overflow="hidden"><defs><clipPath id="clip0"><rect x="406" y="793" width="888" height="889"/></clipPath></defs><g clip-path="url(#clip0)" transform="translate(-406 -793)"><path d="M406 1237.5C406 992.009 604.786 793 850 793 1095.21 793 1294 992.009 1294 1237.5 1294 1482.99 1095.21 1682 850 1682 604.786 1682 406 1482.99 406 1237.5Z" fill="#36454F" fill-rule="evenodd"/><path d="M625 385.957 523.198 385.957 458.542 497.325 220.715 497.325 101.802 292.5 220.715 87.675 458.542 87.675 523.198 199.043 625 199.043 509.443 0 169.814 0 0 292.5 169.814 585 509.443 585Z" fill="#FFF8E7" fill-rule="evenodd" transform="matrix(-1.83697e-16 -1 -1 1.83697e-16 1143 1569)"/><path d="M191.091 286.838 216.345 243.297 203.455 221.074 203.484 221.023 195.44 207.153 195.458 207.122 171.485 165.788 171.54 165.693 151.07 130.401 151.117 130.32 138.228 108.097 138.258 108.046 116.09 69.8269 116.141 69.7392 100.981 43.6016 101.016 43.5413 75.7618 0 25.2538 0 0 43.5413 15.16 69.6789 15.125 69.7392 37.2925 107.959 37.2416 108.046 50.1312 130.27 50.1016 130.32 70.5707 165.612 70.5238 165.693 94.4975 207.027 94.4426 207.122 102.487 220.992 102.469 221.023 115.359 243.247 115.329 243.297 140.583 286.838Z" fill="#FAA224" fill-rule="evenodd" transform="matrix(0.866025 -0.5 -0.5 -0.866025 828.255 1237.5)"/></g></svg>